<?xml version="1.0" encoding="UTF-8"?>
<svg version="1.1" xmlns="http://www.w3.org/2000/svg" width="800" height="800">
<path d="M0 0 C5.32183832 4.56157571 10.18395077 9.13021488 15.05859375 14.12109375 C17.23655336 16.30515622 19.51075974 18.33490069 21.84765625 20.34765625 C26.82584231 24.65777151 31.39196735 29.34102921 36 34.0390625 C39.22974198 37.30665302 42.48511625 40.47152333 45.96875 43.46875 C51.14314977 47.92560605 55.86250569 52.8144639 60.64453125 57.68359375 C64.63538702 61.7182249 68.71652009 65.53971738 73.01757812 69.24023438 C77.21240607 72.96391909 81.07416927 77.03655539 85 81.0390625 C88.22974198 84.30665302 91.48511625 87.47152333 94.96875 90.46875 C100.14314977 94.92560605 104.86250569 99.8144639 109.64453125 104.68359375 C113.63538702 108.7182249 117.71652009 112.53971738 122.01757812 116.24023438 C126.21240607 119.96391909 130.07416927 124.03655539 134 128.0390625 C137.23997537 131.31700634 140.50697069 134.49135561 144 137.5 C148.93462131 141.75032812 153.44253389 146.39258338 158 151.0390625 C161.22974198 154.30665302 164.48511625 157.47152333 167.96875 160.46875 C173.14314977 164.92560605 177.86250569 169.8144639 182.64453125 174.68359375 C186.63538702 178.7182249 190.71652009 182.53971738 195.01757812 186.24023438 C199.21240607 189.96391909 203.07416927 194.03655539 207 198.0390625 C210.23997537 201.31700634 213.50697069 204.49135561 217 207.5 C221.93462131 211.75032812 226.44253389 216.39258338 231 221.0390625 C234.22974198 224.30665302 237.48511625 227.47152333 240.96875 230.46875 C246.14314977 234.92560605 250.86250569 239.8144639 255.64453125 244.68359375 C259.63538702 248.7182249 263.71652009 252.53971738 268.01757812 256.24023438 C272.21240607 259.96391909 276.07416927 264.03655539 280 268.0390625 C283.22974198 271.30665302 286.48511625 274.47152333 289.96875 277.46875 C295.14314977 281.92560605 299.86250569 286.8144639 304.64453125 291.68359375 C308.63538702 295.7182249 312.71652009 299.53971738 317.01757812 303.24023438 C321.21240607 306.96391909 325.07416927 311.03655539 329 315.0390625 C332.23997537 318.31700634 335.50697069 321.49135561 339 324.5 C343.93462131 328.75032812 348.44253389 333.39258338 353 338.0390625 C356.22974198 341.30665302 359.48511625 344.47152333 362.96875 347.46875 C368.14314977 351.92560605 372.86250569 356.8144639 377.64453125 361.68359375 C381.71500483 365.79871604 385.8758501 369.71568289 390.26367188 373.49072266 C392.26137798 375.22719891 394.14797698 377.04689317 396 378.9375 C396.5775 379.52402344 397.155 380.11054687 397.75 380.71484375 C398.36875 381.35099609 398.36875 381.35099609 399 382 C403.09772657 380.39017885 405.76485294 377.42394174 408.75 374.3125 C412.01791838 370.92787025 415.32329645 367.67675381 418.890625 364.60546875 C423.13855988 360.93638336 427.07126101 357.00547218 431 353 C434.88283707 349.04132627 438.76340662 345.14941662 442.96875 341.53125 C447.37203182 337.73857952 451.42986924 333.64426794 455.5 329.5 C460.1933195 324.72119198 464.93991978 320.12844906 470.01757812 315.75976562 C473.50271827 312.66605994 476.73807426 309.32563522 480 306 C484.51975312 301.39197045 489.10932227 296.98982203 494 292.77734375 C497.48971278 289.67613415 500.7321662 286.33165868 504 283 C507.88283707 279.04132627 511.76340662 275.14941662 515.96875 271.53125 C520.37203182 267.73857952 524.42986924 263.64426794 528.5 259.5 C533.1933195 254.72119198 537.93991978 250.12844906 543.01757812 245.75976562 C546.50271827 242.66605994 549.73807426 239.32563522 553 236 C557.51975312 231.39197045 562.10932227 226.98982203 567 222.77734375 C570.48971278 219.67613415 573.7321662 216.33165868 577 213 C580.88283707 209.04132627 584.76340662 205.14941662 588.96875 201.53125 C593.37203182 197.73857952 597.42986924 193.64426794 601.5 189.5 C606.1933195 184.72119198 610.93991978 180.12844906 616.01757812 175.75976562 C619.50271827 172.66605994 622.73807426 169.32563522 626 166 C630.51975312 161.39197045 635.10932227 156.98982203 640 152.77734375 C643.48971278 149.67613415 646.7321662 146.33165868 650 143 C653.88283707 139.04132627 657.76340662 135.14941662 661.96875 131.53125 C666.37203182 127.73857952 670.42986924 123.64426794 674.5 119.5 C679.1933195 114.72119198 683.93991978 110.12844906 689.01757812 105.75976562 C692.50271827 102.66605994 695.73807426 99.32563522 699 96 C703.51975312 91.39197045 708.10932227 86.98982203 713 82.77734375 C716.48971278 79.67613415 719.7321662 76.33165868 723 73 C726.88283707 69.04132627 730.76340662 65.14941662 734.96875 61.53125 C739.37203182 57.73857952 743.42986924 53.64426794 747.5 49.5 C752.1933195 44.72119198 756.93991978 40.12844906 762.01757812 35.75976562 C765.50271827 32.66605994 768.73807426 29.32563522 772 26 C776.56000579 21.3509316 781.19017204 16.90161054 786.12548828 12.65185547 C789.37896363 9.78483096 792.36789624 6.67424078 795.39257812 3.56835938 C796.57848143 2.36238437 797.78708707 1.17880642 799 0 C799.33 0 799.66 0 800 0 C800 153.12 800 306.24 800 464 C536 464 272 464 0 464 C0 310.88 0 157.76 0 0 Z " fill="#FFFFFF" transform="translate(0,192)"/>
<path d="M0 0 C246.84 0 493.68 0 748 0 C746.89041597 3.3287521 746.07455496 4.01489699 743.4375 6.1875 C739.0521458 9.90840659 735.02501771 13.89636866 731 18 C727.11716293 21.95867373 723.23659338 25.85058338 719.03125 29.46875 C714.62796818 33.26142048 710.57013076 37.35573206 706.5 41.5 C701.8066805 46.27880802 697.06008022 50.87155094 691.98242188 55.24023438 C688.49728173 58.33394006 685.26192574 61.67436478 682 65 C678.11716293 68.95867373 674.23659338 72.85058338 670.03125 76.46875 C665.62796818 80.26142048 661.57013076 84.35573206 657.5 88.5 C652.8066805 93.27880802 648.06008022 97.87155094 642.98242188 102.24023438 C639.49728173 105.33394006 636.26192574 108.67436478 633 112 C629.11716293 115.95867373 625.23659338 119.85058338 621.03125 123.46875 C616.62796818 127.26142048 612.57013076 131.35573206 608.5 135.5 C603.8066805 140.27880802 599.06008022 144.87155094 593.98242188 149.24023438 C590.49728173 152.33394006 587.26192574 155.67436478 584 159 C580.11716293 162.95867373 576.23659338 166.85058338 572.03125 170.46875 C567.62796818 174.26142048 563.57013076 178.35573206 559.5 182.5 C554.8066805 187.27880802 550.06008022 191.87155094 544.98242188 196.24023438 C541.49728173 199.33394006 538.26192574 202.67436478 535 206 C531.11716293 209.95867373 527.23659338 213.85058338 523.03125 217.46875 C518.62796818 221.26142048 514.57013076 225.35573206 510.5 229.5 C505.8066805 234.27880802 501.06008022 238.87155094 495.98242188 243.24023438 C492.49728173 246.33394006 489.26192574 249.67436478 486 253 C482.11716293 256.95867373 478.23659338 260.85058338 474.03125 264.46875 C469.62796818 268.26142048 465.57013076 272.35573206 461.5 276.5 C456.8066805 281.27880802 452.06008022 285.87155094 446.98242188 290.24023438 C443.49728173 293.33394006 440.26192574 296.67436478 437 300 C433.11716293 303.95867373 429.23659338 307.85058338 425.03125 311.46875 C420.62796818 315.26142048 416.57013076 319.35573206 412.5 323.5 C407.81094152 328.27446938 403.06887764 332.86266387 397.99560547 337.22705078 C394.44131122 340.38478076 391.14103967 343.79525622 387.8125 347.1875 C379.64194577 355.51178056 379.64194577 355.51178056 375 359 C366.01513473 354.89972447 359.1666928 346.25169631 352.35546875 339.31640625 C348.36461298 335.2817751 344.28347991 331.46028262 339.98242188 327.75976562 C335.78759393 324.03608091 331.92583073 319.96344461 328 315.9609375 C324.76002463 312.68299366 321.49302931 309.50864439 318 306.5 C313.06537869 302.24967188 308.55746611 297.60741662 304 292.9609375 C300.77025802 289.69334698 297.51488375 286.52847667 294.03125 283.53125 C288.85685023 279.07439395 284.13749431 274.1855361 279.35546875 269.31640625 C275.36461298 265.2817751 271.28347991 261.46028262 266.98242188 257.75976562 C262.78759393 254.03608091 258.92583073 249.96344461 255 245.9609375 C251.77025802 242.69334698 248.51488375 239.52847667 245.03125 236.53125 C239.85685023 232.07439395 235.13749431 227.1855361 230.35546875 222.31640625 C226.36461298 218.2817751 222.28347991 214.46028262 217.98242188 210.75976562 C213.78759393 207.03608091 209.92583073 202.96344461 206 198.9609375 C202.77025802 195.69334698 199.51488375 192.52847667 196.03125 189.53125 C190.85685023 185.07439395 186.13749431 180.1855361 181.35546875 175.31640625 C177.36461298 171.2817751 173.28347991 167.46028262 168.98242188 163.75976562 C164.78759393 160.03608091 160.92583073 155.96344461 157 151.9609375 C153.77025802 148.69334698 150.51488375 145.52847667 147.03125 142.53125 C141.85685023 138.07439395 137.13749431 133.1855361 132.35546875 128.31640625 C128.36461298 124.2817751 124.28347991 120.46028262 119.98242188 116.75976562 C115.78759393 113.03608091 111.92583073 108.96344461 108 104.9609375 C104.77025802 101.69334698 101.51488375 98.52847667 98.03125 95.53125 C92.85685023 91.07439395 88.13749431 86.1855361 83.35546875 81.31640625 C79.36461298 77.2817751 75.28347991 73.46028262 70.98242188 69.75976562 C66.78759393 66.03608091 62.92583073 61.96344461 59 57.9609375 C55.76002463 54.68299366 52.49302931 51.50864439 49 48.5 C44.06537869 44.24967188 39.55746611 39.60741662 35 34.9609375 C31.77537469 31.69852361 28.52581575 28.53838646 25.046875 25.546875 C20.54903532 21.67336889 16.4081236 17.48198015 12.25 13.25 C10.77843978 11.75284743 9.30456316 10.25796734 7.828125 8.765625 C7.1877832 8.11368164 6.54744141 7.46173828 5.88769531 6.79003906 C4.01843872 4.93683261 4.01843872 4.93683261 1.76074219 3.38964844 C1.17969727 2.93106445 0.59865234 2.47248047 0 2 C0 1.34 0 0.68 0 0 Z " fill="#FFFFFF" transform="translate(26,144)"/>
</svg>
