<svg xmlns="http://www.w3.org/2000/svg" width="24" height="24" fill="#ffffff" viewBox="0 0 24 24">
  <path d="M12 .5C5.73.5.5 5.73.5 12c0 5.09 3.29 9.39 7.86 10.91.58.1.79-.25.79-.56 
  0-.28-.01-1.02-.02-2-3.2.7-3.88-1.54-3.88-1.54-.53-1.34-1.3-1.7-1.3-1.7-1.06-.73.08-.72.08-.72 
  1.17.08 1.78 1.2 1.78 1.2 1.04 1.78 2.73 1.26 3.4.96.1-.75.41-1.26.74-1.55-2.55-.29-5.23-1.27-5.23-5.65 
  0-1.25.45-2.27 1.19-3.07-.12-.29-.52-1.46.11-3.05 0 0 .97-.31 3.18 1.18a11.07 11.07 0 0 1 5.8 0 
  c2.21-1.49 3.18-1.18 3.18-1.18.63 1.59.23 2.76.11 3.05.74.8 1.19 1.82 1.19 3.07 
  0 4.39-2.68 5.36-5.24 5.64.42.36.79 1.07.79 2.16 
  0 1.56-.01 2.82-.01 3.2 0 .31.21.66.8.55A10.52 10.52 0 0 0 23.5 12C23.5 5.73 18.27.5 12 .5Z"></path>
</svg>
