<svg xmlns="http://www.w3.org/2000/svg" width="24" height="24" fill="currentColor" viewBox="0 0 24 24">
  <path d="M20.45 20.45h-3.55v-5.4c0-1.29-.02-2.96-1.8-2.96-1.8 
  0-2.08 1.4-2.08 2.86v5.5H9.47V9h3.4v1.56h.05c.47-.89 
  1.63-1.8 3.36-1.8 3.6 0 4.27 2.37 4.27 5.44v6.25zM5.34 
  7.43a2.07 2.07 0 1 1 0-4.14 2.07 2.07 0 0 1 0 4.14zM7.12 
  20.45H3.56V9h3.56v11.45zM22.23 0H1.77C.79 0 0 .78 0 
  1.76v20.47C0 23.21.79 24 1.77 24h20.46c.98 
  0 1.77-.79 1.77-1.77V1.76C24 .78 23.21 0 22.23 0z"></path>
</svg>
