<?xml version="1.0" encoding="UTF-8"?>
<svg version="1.1" xmlns="http://www.w3.org/2000/svg" width="908" height="1025">
<path d="M0 0 C1.49998535 0.49935059 1.49998535 0.49935059 3.03027344 1.00878906 C55.46370809 18.67606199 104.93927913 44.48390291 149 78 C150.20411354 78.90536508 151.40851795 79.81034349 152.61328125 80.71484375 C160.31632738 86.53278959 167.69360482 92.69701642 175 99 C175.73992188 99.63808594 176.47984375 100.27617188 177.2421875 100.93359375 C179.17166602 102.6112327 181.08858109 104.30182255 183 106 C183.70769531 106.62648438 184.41539062 107.25296875 185.14453125 107.8984375 C190.55115403 112.72225683 195.87937099 117.63073004 201.1875 122.5625 C202.18523437 123.48192383 202.18523437 123.48192383 203.203125 124.41992188 C207.21425516 128.16390918 210.89520517 132.06497897 214.46606445 136.23022461 C216.22051476 138.25441851 218.07332246 140.13975961 220 142 C246.54463523 167.62930298 268.97933078 200.9105627 287 233 C287.44472656 233.79083984 287.88945313 234.58167969 288.34765625 235.39648438 C291.97861865 241.88864515 295.5161374 248.42783244 299 255 C299.69246826 256.30469238 299.69246826 256.30469238 300.39892578 257.63574219 C337.49449153 328.13736877 356.9919118 409.20772249 357.1875 494.8125 C357.18659363 496.36578003 357.18659363 496.36578003 357.18566895 497.95043945 C357.15971459 514.38271005 356.75857097 530.64795082 355 547 C354.87641113 548.18207031 354.75282227 549.36414063 354.62548828 550.58203125 C347.70677187 614.6535384 328.82762158 675.48073618 300 733 C299.5153125 733.97195313 299.030625 734.94390625 298.53125 735.9453125 C282.44352373 768.0293575 262.19986291 798.59696477 239 826 C238.13096145 827.04251137 237.26250152 828.08550528 236.39453125 829.12890625 C230.57266141 836.10044261 224.55539908 842.85725497 218.375 849.51171875 C216.99072394 851.01004029 215.61869273 852.518689 214.25 854.03125 C206.28959547 862.81806742 198.17401971 871.4415045 189.13671875 879.140625 C187.00576922 880.99497962 184.94259024 882.91234843 182.88134766 884.84350586 C177.03650863 890.30089932 170.94941169 895.3119853 164.6171875 900.19140625 C162.1949086 902.0587702 159.80826318 903.96046803 157.4453125 905.90234375 C147.70152705 913.89528244 137.49607112 921.03203855 127 928 C126.30181152 928.46760742 125.60362305 928.93521484 124.88427734 929.41699219 C50.80349559 978.9468145 -34.39582228 1007.34023112 -123 1015 C-124.07475586 1015.09571289 -125.14951172 1015.19142578 -126.25683594 1015.29003906 C-138.57172994 1016.25489596 -150.90388031 1016.24359078 -163.25 1016.25 C-165.00793884 1016.25101212 -165.00793884 1016.25101212 -166.8013916 1016.25204468 C-186.67966482 1016.23394523 -206.27643382 1015.49882187 -226 1013 C-227.03492584 1012.8691803 -227.03492584 1012.8691803 -228.09075928 1012.73571777 C-278.03467842 1006.33629843 -326.9672528 993.50456445 -373 973 C-374.67787598 972.25363281 -374.67787598 972.25363281 -376.38964844 971.4921875 C-392.32467278 964.3532966 -407.85751856 956.69683281 -423 948 C-423.81807129 947.53303711 -424.63614258 947.06607422 -425.47900391 946.58496094 C-451.83954976 931.44513835 -476.79641723 913.63113281 -500 894 C-500.836521 893.29665527 -500.836521 893.29665527 -501.68994141 892.57910156 C-513.94074409 882.26711019 -513.94074409 882.26711019 -519.4609375 876.54296875 C-521.07125489 874.92856426 -522.75822946 873.47124022 -524.5 872 C-528.69517413 868.36418242 -532.6682863 864.51621796 -536.625 860.625 C-537.25857422 860.01269531 -537.89214844 859.40039062 -538.54492188 858.76953125 C-546.11094091 851.25885405 -550.74316257 845.41297325 -550.8203125 834.40625 C-550.79710937 833.2821875 -550.77390625 832.158125 -550.75 831 C-550.77320313 829.8759375 -550.79640625 828.751875 -550.8203125 827.59375 C-550.76584726 819.82337577 -549.24590345 814.80469573 -544 809 C-541.62109375 806.87890625 -541.62109375 806.87890625 -539.4375 805.5625 C-538.71433594 805.11003906 -537.99117187 804.65757812 -537.24609375 804.19140625 C-524.02872283 797.18045298 -511.6276284 801.50183168 -498.03100586 805.10571289 C-412.60480069 827.7200095 -322.33322489 825.95561172 -145 757 C-121.94112244 743.32300987 -100.28642643 727.50042387 -80 710 C-79.26007813 709.36191406 -78.52015625 708.72382812 -77.7578125 708.06640625 C-75.82834002 706.38877255 -73.91352775 704.69579395 -72 703 C-71.28505371 702.36989014 -70.57010742 701.73978027 -69.83349609 701.09057617 C-63.77266562 695.70019155 -57.95289562 690.10899328 -52.23071289 684.36108398 C-50.80662508 682.93160283 -49.37721956 681.50759489 -47.94726562 680.08398438 C-42.7550305 674.88451268 -37.7540782 669.60199842 -33 664 C-32.11131826 662.97860845 -31.2220349 661.9577399 -30.33203125 660.9375 C-23.1583849 652.57380689 -16.48437594 643.90688032 -10 635 C-9.5035498 634.31921387 -9.00709961 633.63842773 -8.49560547 632.93701172 C47.55005032 555.72139152 79.50273568 462.4884514 74.0604248 286.35218811 C66.51888203 239.98872131 51.75562295 194.73183366 30.06298828 153.05664062 C28.88688137 150.78114118 27.73861633 148.49253885 26.58984375 146.203125 C16.18303605 125.6650184 3.85540714 106.37557821 -10 88 C-10.45745605 87.39091797 -10.91491211 86.78183594 -11.38623047 86.15429688 C-20.36502335 74.23537005 -29.86113821 62.87430111 -39.9453125 51.87890625 C-47.84505754 43.10711144 -52.57950892 35.05515565 -52.3125 22.90625 C-51.4424326 14.81462321 -48.271691 7.31428684 -42 2 C-27.70071244 -7.78509642 -15.31902326 -5.11368042 0 0 Z " fill="#000000" transform="translate(550,6)"/>
</svg>
